# xmcd CD database file
#
# Track frame offsets:
#	150
#	8232
#	15893
#	25297
#	32290
#	41448
#	61723
#	72602
#	82916
#	91499
#	109422
#	121710
#	134098
#	139992
#	153618
#	159094
#	169370
#	178309
#
# Disc length: 2482 seconds
#
# Revision: 0
# Processed by: cddbd v1.5.2PL0 Copyright (c) Steve Scherf et al.
# Submitted via: CDex 1.70beta2
#
DISCID=e809b012
DTITLE=Michael Mantler - For Two
DYEAR=2011
DGENRE=Jazz
TTITLE0=01 - Duet One
TTITLE1=02 - Duet Two
TTITLE2=03 - Duet Three
TTITLE3=04 - Duet Four 
TTITLE4=05 - Duet Five
TTITLE5=06 - Duet Six
TTITLE6=07 - Duet Seven
TTITLE7=08 - Duet Eight
TTITLE8=09 - Duet Nine
TTITLE9=10 - Duet Ten
TTITLE10=11 - Duet Eleven
TTITLE11=12 - Duet Twelve
TTITLE12=13 - Duet Thirteen
TTITLE13=14 - Duet Fourteen
TTITLE14=15 - Duet Fifteen
TTITLE15=16 - Duet Sixteen
TTITLE16=17 - Duet Seventeen
TTITLE17=18 - Duet Eighteen
EXTD=YEAR: 2011
EXTT0=
EXTT1=
EXTT2=
EXTT3=
EXTT4=
EXTT5=
EXTT6=
EXTT7=
EXTT8=
EXTT9=
EXTT10=
EXTT11=
EXTT12=
EXTT13=
EXTT14=
EXTT15=
EXTT16=
EXTT17=
PLAYORDER=
